<svg width="23" height="25" viewBox="0 0 23 25" fill="none" xmlns="http://www.w3.org/2000/svg">
<path d="M3.39442 0C1.52283 0 -3.04183e-08 1.49199 -3.04183e-08 3.32568V4.3291H1.75572V3.32568C1.75572 2.44038 2.49107 1.72017 3.39442 1.72017C4.29802 1.72017 5.03341 2.44033 5.03341 3.32568V4.3291H6.78913V3.32568C6.78913 1.49199 5.26606 0 3.39442 0Z" transform="translate(8.10547)" fill="#676B69" fill-opacity="0.5"/>
<path d="M6.55475 -6.55651e-07C6.55475 1.28066 5.49137 2.32251 4.18449 2.32251H4.12598C2.81914 2.32251 1.75572 1.28066 1.75572 -6.55651e-07H-3.52852e-07C-3.52852e-07 2.22935 1.85086 4.04272 4.12598 4.04272H4.18449C6.45961 4.04272 8.31047 2.22935 8.31047 -6.55651e-07H6.55475Z" transform="translate(7.34473 20.9574)" fill="#676B69" fill-opacity="0.5"/>
<path d="M22.8605 17.4536L20.3665 13.6522V8.77295C20.3665 3.9355 16.3889 1.75834e-07 11.5 1.75834e-07C6.61088 1.75834e-07 2.63357 3.9355 2.63357 8.77295V13.6522L0.139561 17.4533C-0.0342712 17.7179 -0.0465311 18.0545 0.107366 18.3306C0.261264 18.6066 0.55655 18.7787 0.877851 18.7787H22.1222C22.4435 18.7787 22.7388 18.6066 22.8924 18.3309C23.0466 18.0548 23.0343 17.7182 22.8605 17.4536ZM2.48575 17.0585L4.24969 14.3699C4.34069 14.2314 4.38929 14.0697 4.38929 13.9048V8.77295C4.38929 4.88418 7.57917 1.72021 11.5 1.72021C15.4212 1.72021 18.6108 4.88423 18.6108 8.77295V13.9048C18.6108 14.0697 18.659 14.2311 18.75 14.3699L20.514 17.0585H2.48575Z" transform="translate(0 3.18237)" fill="#676B69" fill-opacity="0.5"/>
</svg>
