<svg width="14" height="14" viewBox="0 0 14 14" fill="none" xmlns="http://www.w3.org/2000/svg">
<path d="M13.0614 3.48626C12.4355 2.41385 11.5864 1.56475 10.5139 0.938805C9.44128 0.312892 8.27035 0 7.00022 0C5.73023 0 4.55894 0.312892 3.4865 0.938805C2.41399 1.56465 1.56488 2.41375 0.938905 3.48626C0.312894 4.55883 0 5.73011 0 7C0 8.26996 0.31299 9.44105 0.938809 10.5137C1.56476 11.5861 2.41386 12.4352 3.48637 13.0612C4.55894 13.6871 5.73013 14 7.0001 14C8.27006 14 9.44138 13.6871 10.5139 13.0612C11.5863 12.4354 12.4354 11.5861 13.0613 10.5137C13.6871 9.44114 14 8.26989 14 7C14 5.72998 13.6871 4.55867 13.0614 3.48626ZM11.2931 9.48823C10.8495 10.2477 10.248 10.8495 9.4885 11.2931C8.72898 11.7366 7.89957 11.9582 7.00013 11.9582C6.1009 11.9582 5.27144 11.7366 4.51182 11.2931C3.7523 10.8495 3.15078 10.2477 2.70721 9.48823C2.26356 8.72871 2.04181 7.89928 2.04181 7C2.04181 6.10065 2.26365 5.27122 2.70721 4.5117C3.15068 3.75219 3.75236 3.15054 4.51182 2.70701C5.27134 2.26342 6.10078 2.0417 7.00013 2.0417C7.89954 2.0417 8.72898 2.26342 9.4885 2.70701C10.248 3.15057 10.8496 3.75219 11.2931 4.5117C11.7367 5.27122 11.9584 6.10065 11.9584 7C11.9584 7.89928 11.7367 8.72871 11.2931 9.48823Z" fill="#FF1649"/>
<path d="M3.20834 -1.0522e-07H2.62494C2.53974 -1.0522e-07 2.47001 0.0274231 2.4152 0.082046C2.36074 0.136733 2.33331 0.206552 2.33331 0.291631V3.50005H0.291632C0.206489 3.50005 0.136702 3.52734 0.0819828 3.5819C0.0273278 3.63656 -4.28676e-08 3.70644 -4.28676e-08 3.79168V4.37497C-4.28676e-08 4.46008 0.0273278 4.53 0.0819828 4.58462C0.136734 4.63924 0.206648 4.66654 0.291632 4.66654H3.2085C3.29348 4.66654 3.36343 4.63924 3.41795 4.58462C3.47258 4.53 3.5001 4.46008 3.5001 4.37497V0.291631C3.5001 0.206616 3.47258 0.136828 3.41795 0.082046C3.36336 0.0274231 3.29345 -1.0522e-07 3.20834 -1.0522e-07Z" transform="translate(4.66699 3.5)" fill="#FF1649"/>
</svg>
