<svg width="14" height="17" viewBox="0 0 14 17" fill="none" xmlns="http://www.w3.org/2000/svg">
<path d="M2.95615 0.220467C2.95615 0.0648922 2.83471 -0.0303532 2.68628 0.0087982C2.68628 0.0087982 1.99112 0.192019 1.47808 0.192019C0.965031 0.192019 0.26987 0.0087982 0.26987 0.0087982C0.121447 -0.0303532 -1.06779e-07 0.0648922 -1.06779e-07 0.220467V1.04064C-1.06779e-07 1.19622 0.12551 1.32346 0.278843 1.32346H2.67731C2.8307 1.32346 2.95615 1.19616 2.95615 1.04064V0.220467Z" transform="translate(5.52148 10.8961)" fill="#676B69" fill-opacity="0.5"/>
<path d="M8.47816 0.565749C8.47816 0.253339 8.22838 0 7.92036 0H0.557799C0.249779 0 1.20557e-07 0.253339 1.20557e-07 0.565749V5.23295C1.20557e-07 6.6938 0.428395 8.02357 1.20623 8.97723C1.98921 9.93718 3.06631 10.4659 4.23908 10.4659C5.41185 10.4659 6.48896 9.93724 7.27193 8.97723C8.04977 8.02357 8.47816 6.6938 8.47816 5.23295V0.565749Z" transform="translate(2.76074)" fill="#676B69" fill-opacity="0.5"/>
<path d="M2.23024 5.72532C1.46696 5.43723 1.11549 4.76908 1.11549 3.65836V1.13144H2.14739V-1.92147e-08H0.557799C0.249723 -1.92147e-08 -6.02786e-09 0.253282 -6.02786e-09 0.565749V3.65831C-6.02786e-09 5.54496 0.890988 6.6942 2.52928 6.96265C2.39469 6.57005 2.29389 6.15587 2.23024 5.72532Z" transform="translate(0 0.641235)" fill="#676B69" fill-opacity="0.5"/>
<path d="M0.557799 -1.39743e-07C0.249779 -1.39743e-07 1.20557e-07 0.253282 1.20557e-07 0.565749V3.36605C1.20557e-07 3.67846 0.249779 3.93179 0.557799 3.93179H7.92042C8.22844 3.93179 8.47822 3.67846 8.47822 3.36605V0.565749C8.47822 0.253282 8.22844 -1.39743e-07 7.92042 -1.39743e-07H0.557799Z" transform="translate(2.76074 13.0682)" fill="#676B69" fill-opacity="0.5"/>
<path d="M1.97154 -1.92147e-08H0.381892V1.13144H1.4138V3.65831C1.4138 4.76903 1.06232 5.43718 0.299047 5.72526C0.235389 6.15581 0.134652 6.57005 -3.30671e-07 6.96265C1.63829 6.6942 2.52928 5.54496 2.52928 3.65831V0.565749C2.52934 0.253282 2.27962 -1.92147e-08 1.97154 -1.92147e-08Z" transform="translate(11.4707 0.641235)" fill="#676B69" fill-opacity="0.5"/>
</svg>
