<svg width="17" height="15" viewBox="0 0 17 15" fill="none" xmlns="http://www.w3.org/2000/svg">
<path d="M1.3147 2.52956e-07H-3.97202e-07C0.134006 0.381633 0.207218 0.793484 0.207218 1.22274V6.39118C0.207218 6.57015 0.17727 6.74194 0.122784 6.90171H2.29628C3.10819 6.90171 3.76869 6.21463 3.76869 5.37014V2.55259C3.76872 1.1451 2.66785 2.52956e-07 1.3147 2.52956e-07Z" transform="translate(13.2314 8.09814)" fill="#676B69" fill-opacity="0.5"/>
<path d="M3.5615 1.22274C3.5615 0.79345 3.63472 0.381633 3.76872 4.97479e-07H2.45402C1.10087 4.97479e-07 0 1.1451 0 2.55262V5.37017C0 6.21467 0.660504 6.90174 1.47241 6.90174H3.64594C3.59145 6.74191 3.5615 6.57015 3.5615 6.39118V1.22274Z" transform="translate(0 8.09814)" fill="#676B69" fill-opacity="0.5"/>
<path d="M5.45961 8.43185e-08H2.45402C1.10087 8.43185e-08 -1.74283e-07 1.1451 -1.74283e-07 2.55262V7.72106C-1.74283e-07 8.00299 0.219736 8.23158 0.490804 8.23158H7.42283C7.6939 8.23158 7.91363 8.00302 7.91363 7.72106V2.55262C7.91363 1.1451 6.81276 8.43185e-08 5.45961 8.43185e-08Z" transform="translate(4.54297 6.76831)" fill="#676B69" fill-opacity="0.5"/>
<path d="M2.95127 5.26991e-09C1.32393 5.26991e-09 -5.26901e-08 1.37712 -5.26901e-08 3.06988C-5.26901e-08 4.21806 0.609239 5.22083 1.50897 5.74731C1.93573 5.99702 2.42773 6.13972 2.95127 6.13972C3.47481 6.13972 3.96681 5.99702 4.39357 5.74731C5.29333 5.22083 5.90254 4.21802 5.90254 3.06988C5.90254 1.37716 4.57861 5.26991e-09 2.95127 5.26991e-09Z" transform="translate(5.5498)" fill="#676B69" fill-opacity="0.5"/>
<path d="M2.20716 1.0329e-07C0.990109 1.0329e-07 2.6345e-08 1.02989 2.6345e-08 2.29584C2.6345e-08 3.56179 0.990109 4.59168 2.20716 4.59168C2.51588 4.59168 2.80986 4.52516 3.07691 4.40559C3.53863 4.19882 3.91933 3.8328 4.15491 3.37432C4.32026 3.05254 4.41432 2.68545 4.41432 2.29584C4.41432 1.02992 3.42421 1.0329e-07 2.20716 1.0329e-07Z" transform="translate(1.11035 2.86121)" fill="#676B69" fill-opacity="0.5"/>
<path d="M2.20716 1.0329e-07C0.990109 1.0329e-07 -1.78336e-07 1.02989 -1.78336e-07 2.29584C-1.78336e-07 2.68548 0.0940641 3.05258 0.259414 3.37432C0.494989 3.83283 0.875692 4.19885 1.33741 4.40559C1.60446 4.52516 1.89844 4.59168 2.20716 4.59168C3.42421 4.59168 4.41432 3.56179 4.41432 2.29584C4.41432 1.02989 3.42421 1.0329e-07 2.20716 1.0329e-07Z" transform="translate(11.4766 2.86121)" fill="#676B69" fill-opacity="0.5"/>
</svg>
