<svg width="15" height="15" viewBox="0 0 15 15" fill="none" xmlns="http://www.w3.org/2000/svg">
<path d="M4.1309 3.3678C4.1309 2.91087 4.22237 2.47493 4.38763 2.07715L0.792987 1.217e-07C0.274368 1.03218 0 2.17886 0 3.3678C0 5.37287 0.780155 7.25793 2.1967 8.67576C2.56052 9.03988 2.95535 9.36167 3.37489 9.63935L5.4501 6.04187C4.64853 5.42489 4.1309 4.45581 4.1309 3.3678Z" transform="translate(15 4.12561) scale(-1 1)" fill="#676B69" fill-opacity="0.5"/>
<path d="M0.962764 2.18552C0.598952 2.54965 0.277444 2.94483 8.94079e-10 3.36472L3.59435 5.44169C4.12636 4.74936 4.92037 4.26874 5.82668 4.15004V2.0274e-10C3.98861 0.10562 2.27528 0.871933 0.962764 2.18552Z" transform="translate(13.7666) scale(-1 1)" fill="#676B69" fill-opacity="0.5"/>
<path d="M8.66827 2.18552C7.35576 0.871933 5.64243 0.10562 3.80436 2.0274e-10V4.15004C5.45522 4.36623 6.73407 5.78312 6.73407 7.49345C6.73407 9.35281 5.22266 10.8655 3.3649 10.8655C2.90833 10.8655 2.4728 10.774 2.07535 10.6086L-1.14442e-07 14.2063C1.03126 14.7254 2.17699 15 3.3649 15C5.36824 15 7.25167 14.2192 8.66827 12.8014C10.0849 11.3836 10.865 9.49852 10.865 7.49345C10.865 5.48838 10.0848 3.60332 8.66827 2.18552Z" transform="translate(10.8643) scale(-1 1)" fill="#676B69" fill-opacity="0.5"/>
</svg>
